<?xml version="1.0" encoding="UTF-8" standalone="no"?>
<!DOCTYPE svg PUBLIC "-//W3C//DTD SVG 1.1//EN" "http://www.w3.org/Graphics/SVG/1.1/DTD/svg11.dtd">
<svg width="100%" height="100%" viewBox="0 0 406 553" version="1.1" xmlns="http://www.w3.org/2000/svg" xmlns:xlink="http://www.w3.org/1999/xlink" xml:space="preserve" xmlns:serif="http://www.serif.com/" style="fill-rule:evenodd;clip-rule:evenodd;stroke-linecap:round;stroke-linejoin:round;stroke-miterlimit:1.5;">
    <g id="CardBackground">
        <path d="M405.709,11.811L405.709,540.236C405.709,546.755 400.416,552.047 393.898,552.047L11.811,552.047C5.292,552.047 0,546.755 0,540.236L0,11.811C0,5.292 5.292,0 11.811,0L393.898,0C400.416,0 405.709,5.292 405.709,11.811Z" style="fill:rgb(0,140,74);"/>
        <g transform="matrix(1.07971,0,0,1.18309,-14.3485,-0.882353)">
            <rect x="29.151" y="21.204" width="344.034" height="392.838" style="fill:none;stroke:rgb(216,164,68);stroke-width:0.88px;"/>
        </g>
        <g transform="matrix(0.906393,0,0,0.808728,-47.6999,95.5743)">
            <rect x="255.606" y="503.012" width="41.647" height="22.249" style="fill:rgb(216,164,68);"/>
            <g transform="matrix(0.532152,0.532152,-0.802938,0.802938,597.308,9.30835)">
                <rect x="163.723" y="508.139" width="39.131" height="25.934" style="fill:rgb(216,164,68);"/>
            </g>
        </g>
        <g transform="matrix(0.713857,0,0,0.713857,3.57833,153.396)">
            <g transform="matrix(24.3151,0,0,24.3151,17.126,537.209)">
                <path d="M0.076,-0.717L0.191,-0.717L0.553,-0.136L0.553,-0.717L0.646,-0.717L0.646,-0L0.537,-0L0.169,-0.581L0.169,-0L0.076,-0L0.076,-0.717Z" style="fill:rgb(216,164,68);fill-rule:nonzero;"/>
            </g>
            <g transform="matrix(24.3151,0,0,24.3151,34.6856,537.209)">
                <path d="M0.085,-0.717L0.583,-0.717L0.583,-0.629L0.183,-0.629L0.183,-0.412L0.535,-0.412L0.535,-0.326L0.183,-0.326L0.183,-0L0.085,-0L0.085,-0.717Z" style="fill:rgb(216,164,68);fill-rule:nonzero;"/>
            </g>
            <g transform="matrix(24.3151,0,0,24.3151,49.5382,537.209)">
                <path d="M0.378,-0.737C0.469,-0.737 0.54,-0.713 0.59,-0.665C0.64,-0.617 0.668,-0.563 0.673,-0.502L0.579,-0.502C0.568,-0.548 0.546,-0.585 0.514,-0.612C0.482,-0.639 0.437,-0.652 0.379,-0.652C0.309,-0.652 0.252,-0.628 0.208,-0.578C0.165,-0.528 0.143,-0.452 0.143,-0.35C0.143,-0.266 0.163,-0.198 0.202,-0.145C0.241,-0.093 0.3,-0.067 0.377,-0.067C0.449,-0.067 0.504,-0.094 0.541,-0.149C0.561,-0.178 0.576,-0.216 0.585,-0.264L0.68,-0.264C0.672,-0.188 0.644,-0.125 0.596,-0.074C0.539,-0.012 0.462,0.019 0.366,0.019C0.282,0.019 0.212,-0.007 0.156,-0.057C0.081,-0.124 0.044,-0.227 0.044,-0.366C0.044,-0.472 0.072,-0.559 0.128,-0.626C0.188,-0.7 0.272,-0.737 0.378,-0.737Z" style="fill:rgb(216,164,68);fill-rule:nonzero;"/>
            </g>
            <g transform="matrix(24.3151,0,0,24.3151,73.8533,537.209)">
                <path d="M0.085,-0.717L0.408,-0.717C0.472,-0.717 0.523,-0.699 0.563,-0.663C0.602,-0.627 0.621,-0.577 0.621,-0.512C0.621,-0.456 0.604,-0.407 0.569,-0.365C0.534,-0.324 0.48,-0.303 0.408,-0.303L0.183,-0.303L0.183,-0L0.085,-0L0.085,-0.717ZM0.523,-0.511C0.523,-0.564 0.503,-0.6 0.464,-0.619C0.443,-0.629 0.413,-0.634 0.376,-0.634L0.183,-0.634L0.183,-0.385L0.376,-0.385C0.42,-0.385 0.455,-0.395 0.482,-0.413C0.509,-0.432 0.523,-0.464 0.523,-0.511Z" style="fill:rgb(216,164,68);fill-rule:nonzero;"/>
            </g>
            <g transform="matrix(24.3151,0,0,24.3151,90.0713,537.209)">
                <path d="M0.378,-0.737C0.469,-0.737 0.54,-0.713 0.59,-0.665C0.64,-0.617 0.668,-0.563 0.673,-0.502L0.579,-0.502C0.568,-0.548 0.546,-0.585 0.514,-0.612C0.482,-0.639 0.437,-0.652 0.379,-0.652C0.309,-0.652 0.252,-0.628 0.208,-0.578C0.165,-0.528 0.143,-0.452 0.143,-0.35C0.143,-0.266 0.163,-0.198 0.202,-0.145C0.241,-0.093 0.3,-0.067 0.377,-0.067C0.449,-0.067 0.504,-0.094 0.541,-0.149C0.561,-0.178 0.576,-0.216 0.585,-0.264L0.68,-0.264C0.672,-0.188 0.644,-0.125 0.596,-0.074C0.539,-0.012 0.462,0.019 0.366,0.019C0.282,0.019 0.212,-0.007 0.156,-0.057C0.081,-0.124 0.044,-0.227 0.044,-0.366C0.044,-0.472 0.072,-0.559 0.128,-0.626C0.188,-0.7 0.272,-0.737 0.378,-0.737Z" style="fill:rgb(216,164,68);fill-rule:nonzero;"/>
            </g>
            <g transform="matrix(24.3151,0,0,24.3151,107.631,537.209)">
                <path d="M0.346,-0.414C0.387,-0.414 0.419,-0.42 0.441,-0.431C0.477,-0.449 0.495,-0.481 0.495,-0.528C0.495,-0.575 0.476,-0.606 0.438,-0.623C0.417,-0.632 0.385,-0.636 0.342,-0.636L0.169,-0.636L0.169,-0.414L0.346,-0.414ZM0.378,-0.083C0.438,-0.083 0.48,-0.1 0.506,-0.135C0.522,-0.157 0.53,-0.183 0.53,-0.214C0.53,-0.266 0.507,-0.301 0.46,-0.32C0.435,-0.33 0.403,-0.335 0.362,-0.335L0.169,-0.335L0.169,-0.083L0.378,-0.083ZM0.074,-0.717L0.382,-0.717C0.466,-0.717 0.526,-0.692 0.561,-0.642C0.582,-0.612 0.592,-0.578 0.592,-0.54C0.592,-0.494 0.579,-0.457 0.554,-0.428C0.54,-0.413 0.521,-0.399 0.496,-0.386C0.533,-0.372 0.56,-0.356 0.579,-0.339C0.611,-0.308 0.627,-0.264 0.627,-0.209C0.627,-0.163 0.612,-0.121 0.583,-0.084C0.54,-0.028 0.471,-0 0.377,-0L0.074,-0L0.074,-0.717Z" style="fill:rgb(216,164,68);fill-rule:nonzero;"/>
            </g>
        </g>
        <g transform="matrix(0.713857,0,0,0.713857,317.468,153.057)">
            <g transform="matrix(24.3151,0,0,24.3151,17.126,537.209)">
                <path d="M0.41,-0.389C0.455,-0.389 0.491,-0.398 0.518,-0.416C0.544,-0.434 0.558,-0.467 0.558,-0.515C0.558,-0.566 0.539,-0.601 0.502,-0.619C0.482,-0.629 0.456,-0.634 0.422,-0.634L0.185,-0.634L0.185,-0.389L0.41,-0.389ZM0.088,-0.717L0.42,-0.717C0.475,-0.717 0.52,-0.709 0.555,-0.693C0.623,-0.663 0.656,-0.606 0.656,-0.524C0.656,-0.481 0.647,-0.446 0.63,-0.418C0.612,-0.391 0.587,-0.369 0.555,-0.353C0.583,-0.341 0.604,-0.326 0.618,-0.308C0.633,-0.289 0.64,-0.259 0.642,-0.217L0.646,-0.121C0.646,-0.094 0.649,-0.073 0.652,-0.06C0.658,-0.037 0.669,-0.023 0.684,-0.016L0.684,-0L0.564,-0C0.561,-0.006 0.559,-0.014 0.557,-0.024C0.555,-0.034 0.553,-0.053 0.552,-0.081L0.546,-0.2C0.544,-0.247 0.526,-0.278 0.494,-0.294C0.475,-0.303 0.446,-0.308 0.406,-0.308L0.185,-0.308L0.185,-0L0.088,-0L0.088,-0.717Z" style="fill:rgb(216,164,68);fill-rule:nonzero;"/>
            </g>
            <g transform="matrix(24.3151,0,0,24.3151,34.6856,537.209)">
                <path d="M0.282,-0.535C0.319,-0.535 0.355,-0.526 0.39,-0.509C0.425,-0.491 0.451,-0.469 0.47,-0.441C0.487,-0.415 0.499,-0.384 0.505,-0.349C0.51,-0.325 0.513,-0.286 0.513,-0.233L0.129,-0.233C0.131,-0.18 0.144,-0.138 0.167,-0.106C0.19,-0.074 0.227,-0.058 0.276,-0.058C0.322,-0.058 0.358,-0.073 0.386,-0.103C0.401,-0.121 0.412,-0.141 0.419,-0.164L0.505,-0.164C0.503,-0.145 0.496,-0.123 0.483,-0.1C0.47,-0.076 0.455,-0.057 0.439,-0.042C0.413,-0.016 0.38,0.002 0.34,0.011C0.319,0.016 0.295,0.019 0.269,0.019C0.203,0.019 0.148,-0.005 0.103,-0.052C0.058,-0.1 0.035,-0.166 0.035,-0.251C0.035,-0.335 0.058,-0.404 0.104,-0.456C0.149,-0.508 0.209,-0.535 0.282,-0.535ZM0.422,-0.303C0.419,-0.341 0.41,-0.372 0.397,-0.395C0.373,-0.437 0.333,-0.458 0.277,-0.458C0.236,-0.458 0.203,-0.443 0.175,-0.414C0.148,-0.385 0.133,-0.348 0.132,-0.303L0.422,-0.303Z" style="fill:rgb(216,164,68);fill-rule:nonzero;"/>
            </g>
            <g transform="matrix(24.3151,0,0,24.3151,48.2085,537.209)">
                <path d="M0.107,-0.523L0.247,-0.097L0.393,-0.523L0.489,-0.523L0.292,-0L0.198,-0L0.005,-0.523L0.107,-0.523Z" style="fill:rgb(216,164,68);fill-rule:nonzero;"/>
            </g>
            <g transform="matrix(24.3151,0,0,24.3151,67.1215,537.209)">
                <path d="M0.096,-0.495L0.096,-0.563C0.159,-0.569 0.203,-0.579 0.229,-0.594C0.254,-0.608 0.272,-0.642 0.285,-0.696L0.354,-0.696L0.354,-0L0.26,-0L0.26,-0.495L0.096,-0.495Z" style="fill:rgb(216,164,68);fill-rule:nonzero;"/>
            </g>
            <g transform="matrix(24.3151,0,0,24.3151,80.6444,537.209)">
                <rect x="0.085" y="-0.106" width="0.102" height="0.106" style="fill:rgb(216,164,68);fill-rule:nonzero;"/>
            </g>
            <g transform="matrix(24.3151,0,0,24.3151,87.4,537.209)">
                <path d="M0.271,-0.699C0.361,-0.699 0.426,-0.662 0.467,-0.587C0.498,-0.53 0.514,-0.451 0.514,-0.351C0.514,-0.256 0.5,-0.177 0.471,-0.115C0.43,-0.026 0.363,0.019 0.27,0.019C0.186,0.019 0.124,-0.017 0.083,-0.09C0.048,-0.151 0.031,-0.233 0.031,-0.335C0.031,-0.415 0.042,-0.483 0.062,-0.54C0.1,-0.646 0.17,-0.699 0.271,-0.699ZM0.27,-0.061C0.315,-0.061 0.351,-0.081 0.378,-0.122C0.405,-0.162 0.419,-0.237 0.419,-0.347C0.419,-0.427 0.409,-0.492 0.39,-0.543C0.37,-0.594 0.332,-0.62 0.276,-0.62C0.224,-0.62 0.186,-0.596 0.162,-0.547C0.138,-0.498 0.126,-0.427 0.126,-0.332C0.126,-0.261 0.134,-0.203 0.149,-0.16C0.173,-0.094 0.213,-0.061 0.27,-0.061Z" style="fill:rgb(216,164,68);fill-rule:nonzero;"/>
            </g>
        </g>
    </g>
    <g id="LabelArea" transform="matrix(1.07971,0,0,1.18309,-14.3485,-0.882353)">
        <rect zaparoo-placeholder="main" zaparoo-fill-strategy="cover" stroke-dasharray="5 5" x="29.151" y="21.204" width="344.034" height="392.838" style="fill:none;stroke:rgb(255,0,0);stroke-width:0.88px;"/>
    </g>
</svg>
