<?xml version="1.0" encoding="UTF-8" standalone="no"?>
<svg width="619" height="994" viewBox="0 0 198.04799 318.048" version="1.1" xml:space="preserve"
  style="clip-rule:evenodd;fill-rule:evenodd;stroke-linejoin:round;stroke-miterlimit:2" id="svg1"
  sodipodi:docname="TapTo Vertical v4.svg" inkscape:version="1.3.2 (091e20e, 2023-11-25)"
  xmlns:inkscape="http://www.inkscape.org/namespaces/inkscape"
  xmlns:sodipodi="http://sodipodi.sourceforge.net/DTD/sodipodi-0.dtd" xmlns="http://www.w3.org/2000/svg"
  xmlns:svg="http://www.w3.org/2000/svg" xmlns:serif="http://www.serif.com/">
  <sodipodi:namedview id="namedview1" pagecolor="#505050" bordercolor="#eeeeee" borderopacity="1"
    inkscape:showpageshadow="0" inkscape:pageopacity="0" inkscape:pagecheckerboard="0" inkscape:deskcolor="#505050"
    showgrid="false" inkscape:zoom="3.2730908" inkscape:cx="98.989004" inkscape:cy="159.024"
    inkscape:window-width="2000" inkscape:window-height="1212" inkscape:window-x="143" inkscape:window-y="25"
    inkscape:window-maximized="0" inkscape:current-layer="svg1" />
  <defs id="defs1" />
  <g id="Background" transform="scale(0.31999999)">
    <path id="Sticker-Rounded" serif:id="Sticker Rounded"
      d="m 618.45,24.756 v 944.388 c 0,13.663 -11.085,24.756 -24.738,24.756 H 24.738 C 11.085,993.9 0,982.807 0,969.144 V 24.756 C 0,11.093 11.085,0 24.738,0 h 568.974 c 13.653,0 24.738,11.093 24.738,24.756 z"
      style="fill:transparent" />
  </g>
  <g id="Frame" transform="scale(0.31999999)">
    <path id="Red-Band" serif:id="Red Band"
      d="m 21.859,864.825 h 287.366 v 107.2 H 27.343 c -3.027,0 -5.484,-2.467 -5.484,-5.506 z" style="fill:#a21d20" />
    <rect id="rect1" x="326.51401" y="864.82501" width="270.078" height="85.697998" style="fill:#ffffff" />
    <path id="Frame1" serif:id="Frame"
      d="m 609.082,27.38 v 939.14 c 0,9.937 -8.062,18.005 -17.991,18.005 H 27.359 c -9.929,0 -17.991,-8.068 -17.991,-18.005 V 27.38 c 0,-9.937 8.062,-18.005 17.991,-18.005 h 563.732 c 9.929,0 17.991,8.068 17.991,18.005 z M 596.591,950.523 V 27.379 c 0,-3.038 -2.464,-5.504 -5.5,-5.504 H 27.359 c -3.036,0 -5.5,2.466 -5.5,5.505 v 939.14 c 0,3.039 2.464,5.505 5.5,5.505 h 299.155 v -21.502 z" />
    <path id="NFC-Loading-System" serif:id="NFC Loading System"
      d="m 354.543,940.247 h -2.306 v -1.579 h -13.628 v 1.579 h -2.307 V 920.42 h 18.241 z m -2.306,-3.942 v -13.523 h -13.628 v 13.523 z m 29.6,-5.599 h -21.296 v -2.376 h 21.296 z m 26.333,-7.448 -1.77,0.77 c -0.307,-1.455 -0.715,-2.632 -1.222,-3.531 l 1.858,-0.784 c 0.474,0.959 0.852,2.141 1.134,3.545 z m -7.107,-0.732 h -12.767 v -2.376 h 12.767 z m 4.265,1.785 -1.758,0.757 c -0.316,-1.447 -0.723,-2.619 -1.223,-3.518 l 1.859,-0.784 c 0.474,0.959 0.847,2.141 1.122,3.545 z m 1.82,4.687 h -9.064 c 0.017,0.205 0.025,0.556 0.025,1.053 0,5.231 -2.232,8.955 -6.696,11.172 l -1.808,-2.106 c 2.028,-0.736 3.564,-1.853 4.607,-3.351 1.044,-1.499 1.565,-3.301 1.565,-5.407 0,-0.616 -0.017,-1.07 -0.05,-1.361 h -9.9 v -2.376 h 21.321 z m 21.72,-6.447 c -1.903,2.346 -3.407,3.986 -4.514,4.919 v 10.414 h -2.119 v -8.681 c -2.037,1.567 -3.994,2.761 -5.873,3.583 l -1.309,-1.926 c 2.237,-0.908 4.504,-2.288 6.802,-4.142 2.299,-1.853 4.066,-3.726 5.305,-5.618 z m 17.543,1.079 -1.371,2.055 c -2.061,-1.79 -4.488,-3.035 -7.281,-3.737 l 1.409,-2.158 c 2.942,1.096 5.357,2.376 7.243,3.84 z m 11.497,2.684 c -2.935,4.46 -5.844,7.675 -8.729,9.644 -2.884,1.969 -6.146,3.48 -9.787,4.533 l -1.459,-2.375 c 4.555,-1.011 8.209,-2.624 10.96,-4.842 2.752,-2.217 5.145,-5.107 7.181,-8.668 z m 26.246,-5.471 -1.759,0.758 c -0.316,-1.455 -0.722,-2.628 -1.221,-3.519 l 1.858,-0.796 c 0.473,0.959 0.847,2.145 1.122,3.557 z m -2.831,1.053 -1.047,0.527 0.973,0.989 c -0.69,4.246 -2.161,7.784 -4.415,10.613 -2.252,2.83 -5.465,5.139 -9.638,6.929 l -1.757,-2.209 c 3.798,-1.327 6.777,-3.114 8.933,-5.362 2.158,-2.247 3.597,-5.113 4.321,-8.597 h -9.501 c -1.621,2.371 -3.222,4.079 -4.801,5.124 l -1.857,-1.683 c 3.424,-2.337 5.934,-5.676 7.53,-10.016 l 2.195,1.104 c -0.482,1.147 -1.002,2.183 -1.558,3.108 h 8.814 c -0.323,-1.361 -0.718,-2.457 -1.184,-3.288 l 1.87,-0.796 c 0.474,0.959 0.848,2.145 1.122,3.557 z m 17.88,-0.526 -0.822,2.388 c -2.229,-1.318 -4.818,-2.131 -7.769,-2.439 l 0.824,-2.453 c 3.274,0.702 5.863,1.536 7.767,2.504 z m 9.975,5.124 c -2.353,3.844 -5,6.877 -7.942,9.098 -2.943,2.222 -6.493,3.906 -10.649,5.053 l -1.172,-2.427 c 4.331,-1.036 7.94,-2.639 10.829,-4.809 2.889,-2.17 5.206,-5.019 6.951,-8.546 z m -12.406,1.502 -0.898,2.492 c -1.961,-1.413 -4.513,-2.299 -7.655,-2.659 l 0.822,-2.388 c 3.151,0.608 5.727,1.459 7.731,2.555 z m 39.176,11.044 -1.995,1.503 c -2.46,-3.459 -5.336,-6.229 -8.628,-8.309 -2.668,3.442 -5.94,6.357 -9.813,8.745 l -1.783,-1.887 c 3.217,-1.738 6.049,-4.011 8.497,-6.819 2.448,-2.809 4.358,-5.98 5.73,-9.516 h -12.793 v -2.26 l 14.963,-0.026 0.685,0.732 c -0.931,3.364 -2.311,6.408 -4.14,9.13 3.549,2.329 6.642,5.231 9.277,8.707 z m 21.857,-16.514 h -16.296 v -2.376 h 16.296 z m 2.557,6.472 h -9.065 c 0.016,0.205 0.025,0.556 0.025,1.053 0,5.231 -2.232,8.955 -6.696,11.172 l -1.808,-2.106 c 2.028,-0.736 3.564,-1.853 4.607,-3.351 1.043,-1.499 1.565,-3.301 1.565,-5.407 0,-0.616 -0.016,-1.07 -0.05,-1.361 h -9.9 v -2.376 h 21.322 z m 26.009,10.325 -2.27,0.976 c -0.307,-1.096 -0.764,-2.278 -1.371,-3.545 -8.578,0.891 -14.368,1.636 -17.369,2.235 l -0.611,-2.556 2.93,-0.334 6.646,-17.31 2.12,0.847 -6.21,16.117 11.159,-1.259 c -1.421,-2.739 -2.738,-4.73 -3.952,-5.971 l 2.369,-1.053 c 2.278,2.945 4.464,6.896 6.559,11.853 z M 336.793,911.964 c -0.544,0 -0.986,-0.442 -0.986,-0.987 0,-0.544 0.442,-0.986 0.986,-0.986 h 249.482 c 0.543,0 0.985,0.442 0.985,0.986 0,0.545 -0.442,0.987 -0.985,0.987 z m 0,-37.412 h 5.44 l 4.219,16.529 h 0.079 v -16.529 h 3.863 v 27.615 h -4.455 l -5.204,-20.159 h -0.079 v 20.159 h -3.863 z m 16.834,0 H 365.1 v 3.945 h -7.136 v 7.693 h 5.599 v 3.945 h -5.599 v 12.032 h -4.337 z m 19.674,28.009 c -2.077,0 -3.661,-0.591 -4.751,-1.775 -1.091,-1.183 -1.637,-2.853 -1.637,-5.01 v -14.833 c 0,-2.157 0.546,-3.827 1.637,-5.01 1.09,-1.184 2.674,-1.776 4.751,-1.776 2.076,0 3.659,0.592 4.75,1.776 1.091,1.183 1.636,2.853 1.636,5.01 v 2.919 h -4.1 v -3.195 c 0,-1.71 -0.723,-2.565 -2.169,-2.565 -1.444,0 -2.168,0.855 -2.168,2.565 v 15.425 c 0,1.683 0.724,2.524 2.168,2.524 1.446,0 2.169,-0.841 2.169,-2.524 v -4.222 h 4.1 v 3.906 c 0,2.157 -0.545,3.827 -1.636,5.01 -1.091,1.184 -2.674,1.775 -4.75,1.775 z m 15.296,-28.009 h 4.337 v 23.67 h 7.136 v 3.945 h -11.473 z m 19.673,28.009 c -2.128,0 -3.758,-0.605 -4.888,-1.814 -1.13,-1.21 -1.695,-2.92 -1.695,-5.129 v -14.517 c 0,-2.21 0.565,-3.919 1.695,-5.129 1.13,-1.21 2.76,-1.815 4.888,-1.815 2.13,0 3.759,0.605 4.89,1.815 1.13,1.21 1.694,2.919 1.694,5.129 v 14.517 c 0,2.209 -0.564,3.919 -1.694,5.129 -1.131,1.209 -2.76,1.814 -4.89,1.814 z m 0,-3.945 c 1.499,0 2.248,-0.907 2.248,-2.722 v -15.07 c 0,-1.814 -0.749,-2.722 -2.248,-2.722 -1.498,0 -2.247,0.908 -2.247,2.722 v 15.07 c 0,1.815 0.749,2.722 2.247,2.722 z m 12.774,-24.064 h 5.875 l 4.494,27.615 h -4.337 l -0.788,-5.484 v 0.079 h -4.928 l -0.789,5.405 h -4.021 z m 4.731,18.463 -1.931,-13.65 h -0.079 l -1.893,13.65 z m 7.728,-18.463 h 6.623 c 2.155,0 3.771,0.579 4.849,1.736 1.078,1.157 1.616,2.853 1.616,5.089 v 13.965 c 0,2.236 -0.538,3.932 -1.616,5.089 -1.078,1.157 -2.694,1.736 -4.849,1.736 h -6.623 z m 6.544,23.67 c 0.71,0 1.255,-0.21 1.636,-0.631 0.382,-0.421 0.571,-1.105 0.571,-2.052 V 881.18 c 0,-0.947 -0.189,-1.631 -0.571,-2.052 -0.381,-0.421 -0.926,-0.631 -1.636,-0.631 h -2.207 v 19.725 z m 9.462,-23.67 h 4.337 v 27.615 h -4.337 z m 7.57,0 h 5.441 l 4.218,16.529 h 0.079 v -16.529 h 3.864 v 27.615 h -4.456 l -5.204,-20.159 h -0.078 v 20.159 h -3.864 z m 22.985,28.009 c -2.104,0 -3.706,-0.598 -4.811,-1.795 -1.103,-1.196 -1.655,-2.912 -1.655,-5.148 v -14.517 c 0,-2.236 0.552,-3.952 1.655,-5.149 1.105,-1.196 2.707,-1.795 4.811,-1.795 2.102,0 3.705,0.599 4.809,1.795 1.105,1.197 1.656,2.913 1.656,5.149 v 2.367 h -4.1 v -2.644 c 0,-1.814 -0.749,-2.722 -2.247,-2.722 -1.498,0 -2.248,0.908 -2.248,2.722 v 15.11 c 0,1.788 0.75,2.682 2.248,2.682 1.498,0 2.247,-0.894 2.247,-2.682 v -5.405 h -2.168 v -3.945 h 6.268 v 9.034 c 0,2.236 -0.551,3.952 -1.656,5.148 -1.104,1.197 -2.707,1.795 -4.809,1.795 z m 21.211,0 c -2.104,0 -3.694,-0.598 -4.771,-1.795 -1.078,-1.196 -1.617,-2.912 -1.617,-5.148 v -1.578 h 4.1 v 1.894 c 0,1.788 0.75,2.682 2.248,2.682 0.736,0 1.295,-0.217 1.675,-0.651 0.381,-0.433 0.572,-1.137 0.572,-2.11 0,-1.157 -0.263,-2.176 -0.789,-3.057 -0.525,-0.882 -1.497,-1.94 -2.917,-3.176 -1.787,-1.578 -3.035,-3.005 -3.746,-4.281 -0.709,-1.275 -1.064,-2.715 -1.064,-4.319 0,-2.183 0.552,-3.873 1.656,-5.07 1.104,-1.196 2.707,-1.795 4.809,-1.795 2.077,0 3.648,0.599 4.712,1.795 1.064,1.197 1.597,2.913 1.597,5.149 v 1.144 h -4.1 v -1.421 c 0,-0.946 -0.184,-1.637 -0.552,-2.071 -0.369,-0.434 -0.907,-0.651 -1.617,-0.651 -1.446,0 -2.168,0.881 -2.168,2.644 0,0.999 0.27,1.933 0.808,2.801 0.539,0.867 1.518,1.919 2.937,3.156 1.814,1.578 3.062,3.011 3.745,4.3 0.684,1.288 1.026,2.801 1.026,4.536 0,2.262 -0.559,3.998 -1.676,5.208 -1.117,1.209 -2.74,1.814 -4.868,1.814 z m 12.773,-12.15 -5.244,-15.859 h 4.613 l 2.957,10.139 h 0.078 l 2.957,-10.139 h 4.219 l -5.243,15.859 v 11.756 h -4.337 z m 16.558,12.15 c -2.102,0 -3.692,-0.598 -4.77,-1.795 -1.078,-1.196 -1.616,-2.912 -1.616,-5.148 v -1.578 h 4.1 v 1.894 c 0,1.788 0.749,2.682 2.247,2.682 0.736,0 1.294,-0.217 1.676,-0.651 0.381,-0.433 0.572,-1.137 0.572,-2.11 0,-1.157 -0.263,-2.176 -0.789,-3.057 -0.525,-0.882 -1.499,-1.94 -2.918,-3.176 -1.787,-1.578 -3.036,-3.005 -3.745,-4.281 -0.709,-1.275 -1.064,-2.715 -1.064,-4.319 0,-2.183 0.551,-3.873 1.656,-5.07 1.103,-1.196 2.707,-1.795 4.809,-1.795 2.077,0 3.647,0.599 4.712,1.795 1.064,1.197 1.596,2.913 1.596,5.149 v 1.144 h -4.101 v -1.421 c 0,-0.946 -0.183,-1.637 -0.551,-2.071 -0.368,-0.434 -0.906,-0.651 -1.616,-0.651 -1.446,0 -2.168,0.881 -2.168,2.644 0,0.999 0.268,1.933 0.807,2.801 0.54,0.867 1.518,1.919 2.938,3.156 1.814,1.578 3.062,3.011 3.745,4.3 0.684,1.288 1.025,2.801 1.025,4.536 0,2.262 -0.558,3.998 -1.675,5.208 -1.118,1.209 -2.74,1.814 -4.87,1.814 z m 12.419,-24.064 h -4.534 v -3.945 h 13.405 v 3.945 h -4.534 v 23.67 h -4.337 z m 10.96,-3.945 h 11.828 v 3.945 h -7.491 v 7.298 h 5.954 v 3.945 h -5.954 v 8.482 h 7.491 v 3.945 h -11.828 z m 14.312,0 h 6.189 l 2.76,19.764 h 0.079 l 2.76,-19.764 h 6.19 v 27.615 h -4.1 v -20.909 h -0.079 l -3.154,20.909 h -3.627 l -3.154,-20.909 h -0.079 v 20.909 h -3.785 z" />
    <!-- old logo -->
    <!-- old url -->
    <rect id="Gold-Band" serif:id="Gold Band" x="309.22501" y="864.85699" width="17.288" height="107.2"
      style="fill:#ffcc54" />
  </g>
</svg>